HIERARCHY
ROOT Spine
{
    OFFSET 0.0 0.0 -0.0
    CHANNELS 6 Xposition Yposition Zposition Zrotation Xrotation Yrotation
    JOINT ShoulderCenter
    {
        OFFSET 0.0 31.42022705078125 0.0
        CHANNELS 3 Zrotation Xrotation Yrotation
        JOINT LeftShoulder
        {
            OFFSET 17.00136947631836 0.0 0.0
            CHANNELS 3 Zrotation Xrotation Yrotation
            JOINT LeftElbow
            {
                OFFSET 30.429115295410156 0.0 0.0
                CHANNELS 3 Zrotation Xrotation Yrotation
                JOINT LeftHand
                {
                    OFFSET 28.5494384765625 0.0 0.0
                    CHANNELS 3 Zrotation Xrotation Yrotation
                    End Site
                    {
                        OFFSET 11.419776916503906 0.0 0.0
                    }
                }
            }
        }
        JOINT RightShoulder
        {
            OFFSET -17.00136947631836 0.0 0.0
            CHANNELS 3 Zrotation Xrotation Yrotation
            JOINT RightElbow
            {
                OFFSET -30.429115295410156 0.0 0.0
                CHANNELS 3 Zrotation Xrotation Yrotation
                JOINT RightHand
                {
                    OFFSET -28.5494384765625 0.0 0.0
                    CHANNELS 3 Zrotation Xrotation Yrotation
                    End Site
                    {
                        OFFSET -11.419776916503906 0.0 0.0
                    }
                }
            }
        }
        End Site
        {
            OFFSET 0.0 12.56809139251709 0.0
        }
    }
    JOINT LeftHip
    {
        OFFSET 17.6286928686453 -17.6286928686453 0.0
        CHANNELS 3 Zrotation Xrotation Yrotation
        JOINT LeftKnee
        {
            OFFSET 0.0 -35.00282287597656 0.0
            CHANNELS 3 Zrotation Xrotation Yrotation
            JOINT LeftFoot
            {
                OFFSET 0.0 -45.99578094482422 0.0
                CHANNELS 3 Zrotation Xrotation Yrotation
                End Site
                {
                    OFFSET 0.0 0.0 18.3983154296875
                }
            }
        }
    }
    JOINT RightHip
    {
        OFFSET -17.6286928686453 -17.6286928686453 0.0
        CHANNELS 3 Zrotation Xrotation Yrotation
        JOINT RightKnee
        {
            OFFSET 0.0 -35.00282287597656 0.0
            CHANNELS 3 Zrotation Xrotation Yrotation
            JOINT RightFoot
            {
                OFFSET 0.0 -45.99578094482422 0.0
                CHANNELS 3 Zrotation Xrotation Yrotation
                End Site
                {
                    OFFSET 0.0 0.0 18.3983154296875
                }
            }
        }
    }
}
MOTION
Frames: 4
Frame Time: 0.03333333333333333
49.20000076293945 -11.5 108.20000457763672 35.9097270590006 -54.284762865572674 -150.76301061812995 -1.8937765960308032e-06 -4.139485956201944e-06 9.729452435812053 109.25037991400787 -23.464242334284453 -133.45083714292105 -1.1709712137807666e-06 1.3825323422640794e-06 57.75783158515379 0.0 0.0 0.0 -108.937660713317 1.7721528151926846 130.41204917082092 6.333794052054837e-06 3.316344918287129e-06 -59.5392226763864 0.0 0.0 6.3611093629270335e-15 92.81582177121962 -74.94452015258389 149.87318740795595 17.655115518446287 -8.11400113906479 6.134760383093708 1.1034765745125397e-32 3.1805546814635168e-15 -3.975693351829396e-16 12.115917851639576 -87.84577802042594 -48.066852852235826 -17.581769885426603 7.29095470882025 4.270026558569779 -7.951386703658792e-16 -1.6552148617688095e-32 2.3854160110976376e-15
49.099998474121094 -10.40000057220459 108.0999984741211 34.18611583964932 -51.19273311923273 -152.18379013900872 7.299830601457595e-07 4.583902371959238e-06 9.437279295262735 110.88740431596979 -25.43229868237925 -136.0303129137883 -4.358061829706621e-06 2.677859709440843e-07 60.41738738505097 -6.3611093629270335e-15 -3.1805546814635164e-15 -6.3611093629270335e-15 -108.57538073664846 1.2861845805654775 134.4849109585398 3.886285350835442e-07 5.7596530064441986e-06 -62.63806061782392 3.751820353342635e-31 6.758678698109972e-15 -6.361109362927032e-15 78.79203439961553 -73.50179839562816 135.985535379861 16.208225583248353 -7.6444928666936605 6.2568361614053405 0.0 0.0 -5.9635400277440935e-15 9.786270176093236 -83.57489782162902 -49.913758487370636 -17.32878463725414 6.85427286378374 4.4883840821251075 -1.5902773407317584e-15 1.5902773407317584e-15 -4.969616689786745e-16
49.0 -9.09999942779541 107.9000015258789 32.83612421467281 -48.2059177534272 -153.10145089821071 -4.342808941959679e-07 2.6936253025795315e-06 9.183061987224463 112.88256403901751 -27.374979927709774 -138.0002587306794 3.726049494904165e-06 -1.014781793398536e-06 62.81486535420451 0.0 0.0 3.1805546814635168e-15 -108.66235646882534 1.0067622514534045 138.47338955269325 -1.4033977060838744e-06 5.485942751842483e-07 -66.22863524114199 6.3611093629270335e-15 6.3611093629270335e-15 6.3611093629270335e-15 67.11217816616448 -71.28855900222527 123.87342249136198 14.595882679957532 -6.953215052491663 6.271687176225321 0.0 0.0 0.0 8.814635739355458 -78.83174105238174 -49.677872862678875 -16.458661149241358 6.590898175098665 4.851590544682097 -2.3854160110976376e-15 -4.138037154422024e-33 1.987846675914698e-16
48.69999694824219 -7.90000057220459 107.79999542236328 30.73547980754083 -45.36600623976992 -154.62501285405452 1.2060673777516853e-06 -3.141100497807837e-07 9.227312679109337 113.94674427489811 -29.416117322680865 -139.65583543284376 1.3788759053688274e-06 2.5315286882223213e-06 64.49712961934992 0.0 3.1805546814635164e-15 0.0 -108.73432669786473 0.7820692027837418 142.62591811324742 3.3068601510973995e-06 6.093764341122929e-07 -70.00980474905866 0.0 0.0 0.0 57.29675304051135 -68.34127432359861 114.52190762664158 13.086869621597327 -6.555810853454913 6.595619603565529 9.931289170612858e-32 -3.1805546814635176e-15 3.578124016646457e-15 7.355329174226411 -73.79349480967883 -49.14140585162142 -15.093242482556501 5.988736529916695 4.922146844883888 0.0 0.0 -9.939233379573492e-16
